<svg viewBox="0 0 575 575" class="roots-wrapper"><g transform="rotate(180 164.0328 287.504)"><svg viewBoxSize="575" data-root-id="2796121696129" xmlns="http://www.w3.org/2000/svg" xmlns:xlink="http://www.w3.org/1999/xlink" id="Layer_2" viewBox="0 0 477.78997802734375 492.010009765625" height="229.99998474121094" width="223.3455810546875" y="172.504" x="52.3598" preserveAspectRatio="xMinYMin" zoom="1" editorType="buyer" data-layer-role="icon" style="position: absolute; height: 230px; width: 223.346px; top: 172.504px; left: 52.3598px; transform: rotate(180deg);"><linearGradient id="linear-gradient" x1="280.01" y1="239.08" x2="431.65" y2="87.43" gradientTransform="translate(594.28 579.28) rotate(-180)" gradientUnits="userSpaceOnUse" name="Layer %{number}" zoom="1" data-layer-id="2467055896130"><stop offset=".2" stop-color="#ed1c24"></stop><stop offset="1" stop-color="#fbb03b"></stop></linearGradient><linearGradient id="linear-gradient-2" x1="290" y1="175.91" x2="441.64" y2="24.27" gradientTransform="translate(113.5 661.74) rotate(-108)" xlink:href="#linear-gradient" name="Layer %{number}" zoom="1" data-layer-id="4118166896130"></linearGradient><linearGradient id="linear-gradient-3" x1="233.01" y1="146.9" x2="384.66" y2="-4.75" gradientTransform="translate(-113.5 229.97) rotate(-36)" xlink:href="#linear-gradient" name="Layer %{number}" zoom="1" data-layer-id="3836694796130"></linearGradient><linearGradient id="linear-gradient-4" x1="187.81" y1="192.13" x2="339.45" y2="40.48" gradientTransform="translate(226.99 -119.34) rotate(36)" xlink:href="#linear-gradient" name="Layer %{number}" zoom="1" data-layer-id="6149774796130"></linearGradient><linearGradient id="linear-gradient-5" x1="216.85" y1="249.09" x2="368.5" y2="97.45" gradientTransform="translate(664.43 96.54) rotate(108)" xlink:href="#linear-gradient" name="Layer %{number}" zoom="1" data-layer-id="5022746296130"></linearGradient><path id="Layer_1-2" d="M354.54,440.14l-191.74,51.87,52.13-192.66c70.2,6.77,126.39,34.6,139.61,140.79Z" name="Layer %{number}" zoom="1" data-layer-id="8839273196130" style="fill: rgb(252, 179, 179); stroke-width: 0px; fill-opacity: 1;"></path><path id="Layer_1-2" d="M108.58,400.75L0,234.43l199.34-9.96c15.26,68.86,6.15,130.9-90.76,176.28Z" name="Layer %{number}" zoom="1" data-layer-id="3633862296130" style="fill: rgb(255, 229, 138); stroke-width: 0px; fill-opacity: 1;"></path><path id="Layer_1-2" d="M70.04,154.67L194.67,0l71.07,186.51c-60.77,35.79-122.59,46.3-195.7-31.84Z" name="Layer %{number}" zoom="1" data-layer-id="4487387896130" style="fill: rgb(98, 212, 159); stroke-width: 0px; fill-opacity: 1;"></path><path id="Layer_1-2" d="M292.18,41.97l185.61,70.73-155.42,125.23c-52.82-46.74-81.92-102.29-30.19-195.96Z" name="Layer %{number}" zoom="1" data-layer-id="7568145696130" style="fill: rgb(247, 64, 64); stroke-width: 0px; fill-opacity: 1;"></path><path id="Layer_1-2" d="M468,218.4l-9.91,198.38-167.13-109.11c28.13-64.67,71.97-109.51,177.04-89.27Z" name="Layer %{number}" zoom="1" data-layer-id="0293761596130" style="fill: rgb(29, 191, 115); stroke-width: 0px; fill-opacity: 1;"></path></svg></g><g transform="rotate(0 0 0)"><svg viewBoxSize="575" data-root-id="8248886496130" xmlns="http://www.w3.org/2000/svg" y="301.391" viewBox="3.2899999618530273 27.059999465942383 129.13999938964844 66.38999938964844" x="200.589" height="66.38999938964844" width="129.13999938964844" fontUrl="https://fonts.gstatic.com/s/poppins/v22/pxiEyp8kv8JHgFVrFJDUc1NECPY.ttf" zoom="1" editorType="buyer" data-layer-role="slogan" style="position: absolute; top: 301.391px; width: 129.14px; height: 66.39px; left: 200.589px;"><g data-horizontal-grow="center" zoom="1" root="[object Object]" style="fill: rgb(171, 45, 45); fill-opacity: 1;"><path d="M3.47 81.26Q6.50 78.85 6.23 79.03L6.23 79.03Q14.95 71.82 19.98 67.19Q25.01 62.57 28.48 57.49Q31.95 52.42 31.95 47.61L31.95 47.61Q31.95 43.97 30.26 41.92Q28.57 39.87 25.19 39.87L25.19 39.87Q21.80 39.87 19.89 42.41Q17.98 44.94 17.98 49.57L17.98 49.57L3.29 49.57Q3.47 42.01 6.54 36.93Q9.61 31.86 14.64 29.46Q19.67 27.06 25.81 27.06L25.81 27.06Q36.40 27.06 41.79 32.48Q47.17 37.91 47.17 46.64L47.17 46.64Q47.17 56.16 40.67 64.30Q34.18 72.45 24.12 80.19L24.12 80.19L48.15 80.19L48.15 92.56L3.47 92.56L3.47 81.26ZM62.03 42.63L53.22 42.63L53.22 28.48L77.88 28.48L77.88 93.45L62.03 93.45L62.03 42.63ZM87.75 81.26Q90.78 78.85 90.51 79.03L90.51 79.03Q99.23 71.82 104.26 67.19Q109.29 62.57 112.76 57.49Q116.23 52.42 116.23 47.61L116.23 47.61Q116.23 43.97 114.54 41.92Q112.85 39.87 109.47 39.87L109.47 39.87Q106.09 39.87 104.17 42.41Q102.26 44.94 102.26 49.57L102.26 49.57L87.58 49.57Q87.75 42.01 90.82 36.93Q93.89 31.86 98.92 29.46Q103.95 27.06 110.09 27.06L110.09 27.06Q120.68 27.06 126.07 32.48Q131.45 37.91 131.45 46.64L131.45 46.64Q131.45 56.16 124.96 64.30Q118.46 72.45 108.40 80.19L108.40 80.19L132.43 80.19L132.43 92.56L87.75 92.56L87.75 81.26Z" transform="translate(0, 0)"></path></g></svg></g><g transform="rotate(360 305.419 255.33499999999998)"><svg viewBoxSize="575" data-root-id="9696774196130" xmlns="http://www.w3.org/2000/svg" y="223.17" viewBox="5.619999885559082 31.530000686645508 209.66000366210938 64.33000183105469" x="200.589" height="64.33000183105469" width="209.66000366210938" fontUrl="https://fonts.gstatic.com/s/poppins/v22/pxiEyp8kv8JHgFVrFJDUc1NECPY.ttf" zoom="1" editorType="buyer" data-layer-role="brandName" style="position: absolute; top: 223.17px; width: 209.66px; height: 64.33px; left: 200.589px; transform: rotate(360deg);"><g data-horizontal-grow="center" zoom="1" root="[object Object]" style="fill: rgb(18, 111, 67); fill-opacity: 1;"><path d="M54.09 52.01Q54.09 57.53 51.55 62.11Q49.02 66.69 43.76 69.49Q38.51 72.30 30.72 72.30L30.72 72.30L21.11 72.30L21.11 95.14L5.62 95.14L5.62 31.53L30.72 31.53Q38.33 31.53 43.58 34.16Q48.84 36.79 51.46 41.41Q54.09 46.03 54.09 52.01L54.09 52.01ZM29.54 59.98Q33.98 59.98 36.15 57.90Q38.33 55.81 38.33 52.01L38.33 52.01Q38.33 48.20 36.15 46.12Q33.98 44.03 29.54 44.03L29.54 44.03L21.11 44.03L21.11 59.98L29.54 59.98ZM59.08 69.77Q59.08 61.97 62.02 56.09Q64.96 50.20 70.04 47.02Q75.11 43.85 81.36 43.85L81.36 43.85Q86.71 43.85 90.74 46.03Q94.77 48.20 96.95 51.74L96.95 51.74L96.95 44.58L112.44 44.58L112.44 95.14L96.95 95.14L96.95 87.98Q94.68 91.51 90.65 93.69Q86.62 95.86 81.27 95.86L81.27 95.86Q75.11 95.86 70.04 92.64Q64.96 89.43 62.02 83.49Q59.08 77.56 59.08 69.77L59.08 69.77ZM96.95 69.86Q96.95 64.06 93.73 60.71Q90.52 57.35 85.89 57.35L85.89 57.35Q81.27 57.35 78.06 60.66Q74.84 63.97 74.84 69.77L74.84 69.77Q74.84 75.57 78.06 78.96Q81.27 82.36 85.89 82.36L85.89 82.36Q90.52 82.36 93.73 79.01Q96.95 75.66 96.95 69.86L96.95 69.86ZM144.24 95.86Q137.63 95.86 132.47 93.60Q127.30 91.33 124.31 87.39Q121.32 83.45 120.96 78.56L120.96 78.56L136.27 78.56Q136.54 81.18 138.72 82.81Q140.89 84.44 144.06 84.44L144.06 84.44Q146.96 84.44 148.55 83.31Q150.13 82.18 150.13 80.37L150.13 80.37Q150.13 78.19 147.87 77.15Q145.60 76.11 140.53 74.84L140.53 74.84Q135.09 73.57 131.47 72.17Q127.84 70.76 125.22 67.73Q122.59 64.69 122.59 59.53L122.59 59.53Q122.59 55.18 124.99 51.60Q127.39 48.02 132.06 45.94Q136.72 43.85 143.16 43.85L143.16 43.85Q152.67 43.85 158.15 48.56Q163.63 53.28 164.45 61.07L164.45 61.07L150.13 61.07Q149.77 58.44 147.82 56.90Q145.88 55.36 142.70 55.36L142.70 55.36Q139.99 55.36 138.54 56.40Q137.09 57.44 137.09 59.26L137.09 59.26Q137.09 61.43 139.40 62.52Q141.71 63.61 146.60 64.69L146.60 64.69Q152.22 66.14 155.75 67.55Q159.29 68.95 161.96 72.08Q164.63 75.20 164.72 80.46L164.72 80.46Q164.72 84.90 162.23 88.39Q159.74 91.87 155.07 93.87Q150.41 95.86 144.24 95.86L144.24 95.86ZM194.80 95.86Q188.19 95.86 183.02 93.60Q177.86 91.33 174.87 87.39Q171.88 83.45 171.52 78.56L171.52 78.56L186.83 78.56Q187.10 81.18 189.28 82.81Q191.45 84.44 194.62 84.44L194.62 84.44Q197.52 84.44 199.11 83.31Q200.69 82.18 200.69 80.37L200.69 80.37Q200.69 78.19 198.43 77.15Q196.16 76.11 191.09 74.84L191.09 74.84Q185.65 73.57 182.03 72.17Q178.40 70.76 175.78 67.73Q173.15 64.69 173.15 59.53L173.15 59.53Q173.15 55.18 175.55 51.60Q177.95 48.02 182.62 45.94Q187.28 43.85 193.72 43.85L193.72 43.85Q203.23 43.85 208.71 48.56Q214.19 53.28 215.01 61.07L215.01 61.07L200.69 61.07Q200.33 58.44 198.38 56.90Q196.43 55.36 193.26 55.36L193.26 55.36Q190.54 55.36 189.09 56.40Q187.64 57.44 187.64 59.26L187.64 59.26Q187.64 61.43 189.96 62.52Q192.27 63.61 197.16 64.69L197.16 64.69Q202.78 66.14 206.31 67.55Q209.84 68.95 212.52 72.08Q215.19 75.20 215.28 80.46L215.28 80.46Q215.28 84.90 212.79 88.39Q210.30 91.87 205.63 93.87Q200.96 95.86 194.80 95.86L194.80 95.86Z" transform="translate(0, 0)"></path></g></svg></g></svg>